<?xml version="1.0" encoding="utf-8"?><svg id="r-m-graphic" xmlns="http://www.w3.org/2000/svg" viewBox="0 0 276 276"><path id="m-pointer" fill="#B3D92B" d="M165.5 86l18.2 18.2-19.5 19.5.6.6 68.4 21.4 42.8-42.8L234.1 61l-67.5 23.9z"/><path id="r-triangle" fill="#B3D92B" d="M161.5 217.4l25.6-25.6-70.7-19.5z"/><path id="r-square" fill="#B3D92B" d="M50.912 106.8l23.405-23.406 24.678 24.678-23.405 23.405z"/><path id="letter-outline" fill="currentColor" d="M149.9 109.4l-32-32 89.9-30.3 9-3.4-11.2-11.2-98.8 33.8-32.5-32.5L0 108.1l135.4 135.4 10.6-10.6L21.1 108.1l54.5-54.5 55.7 55.8-33.2 33.2L202 176.9l11.5-11.5-89.9-29.8z"/></svg>