<?xml version="1.0" encoding="utf-8"?>
<!-- Generator: Adobe Illustrator 18.1.0, SVG Export Plug-In . SVG Version: 6.00 Build 0)  -->
<svg version="1.1" id="r-m-graphic" xmlns="http://www.w3.org/2000/svg" xmlns:xlink="http://www.w3.org/1999/xlink" x="0px"
	 y="0px" viewBox="0 0 276 276" enable-background="new 0 0 276 276" xml:space="preserve">
<polygon id="m-pointer" fill="#B3D92B" points="165.5,86 183.7,104.2 164.2,123.7 164.8,124.3 233.2,145.7 276,102.9 234.1,61
	166.6,84.9 "/>
<polygon id="r-triangle" fill="#B3D92B" points="161.5,217.4 187.1,191.8 116.4,172.3 "/>
<rect id="r-square" x="58.4" y="90" transform="matrix(0.7071 -0.7071 0.7071 0.7071 -54.0212 84.4549)" fill="#B3D92B" width="33.1" height="34.9"/>
<polygon id="letter-outline" fill="currentColor" points="149.9,109.4 117.9,77.4 207.8,47.1 216.8,43.7 205.6,32.5 106.8,66.3
	74.3,33.8 0,108.1 135.4,243.5 146,232.9 21.1,108.1 75.6,53.6 131.3,109.4 98.1,142.6 202,176.9 213.5,165.4 123.6,135.6 "/>
</svg>
